<svg width="76" height="76" viewBox="0 0 76 76" fill="none" xmlns="http://www.w3.org/2000/svg">
<circle cx="37.5422" cy="37.5422" r="37.5422" fill="#B9BCFF"/>
<path d="M45.4339 36.4203C41.765 36.4203 38.796 39.3894 38.796 43.0582C38.796 46.727 41.765 49.6961 45.4339 49.6961C49.1027 49.6961 52.0717 46.727 52.0717 43.0582C52.0717 39.3894 49.1027 36.4203 45.4339 36.4203ZM48.384 43.3482C48.384 43.5943 48.1826 43.7958 47.9364 43.7958H45.1444C44.8982 43.7958 44.6968 43.5943 44.6968 43.3482V39.8186C44.6968 39.5724 44.8982 39.371 45.1444 39.371H45.7238C45.97 39.371 46.1714 39.5724 46.1714 39.8186V42.3207H47.9364C48.1826 42.3207 48.384 42.5221 48.384 42.7683V43.3482ZM45.4339 34.9452C45.6828 34.9452 45.928 34.9605 46.1714 34.9826V32.7326C46.1714 31.5525 45.1388 30.52 43.9588 30.52H40.271V28.3074C40.271 27.1273 39.2385 26.0947 38.0584 26.0947H30.683C29.5029 26.0947 28.4704 27.1273 28.4704 28.3074V30.52H24.7826C23.6026 30.52 22.57 31.5525 22.57 32.7326V36.4203H40.7836C42.102 35.4943 43.7039 34.9452 45.4339 34.9452ZM37.3209 30.52H31.4205V29.0449H37.3209V30.52ZM37.6353 40.8456H32.1581C31.7506 40.8456 31.4205 40.5155 31.4205 40.1081V37.8954H22.57V44.5333C22.57 45.7134 23.6026 46.7459 24.7826 46.7459H38.2165C37.6482 45.6378 37.3209 44.3867 37.3209 43.0582C37.3209 42.2903 37.4352 41.5499 37.6353 40.8456Z" fill="#464993"/>
</svg>
