<svg width="86" height="81" viewBox="0 0 86 81" fill="none" xmlns="http://www.w3.org/2000/svg">
<circle cx="37.5422" cy="42.7561" r="37.5422" fill="#FFF8B9"/>
<path d="M39.8794 35.1652V26.802H27.5805C26.7627 26.802 26.1047 27.46 26.1047 28.2779V56.8112C26.1047 57.6291 26.7627 58.2871 27.5805 58.2871H48.2426C49.0605 58.2871 49.7185 57.6291 49.7185 56.8112V36.6411H41.3552C40.5435 36.6411 39.8794 35.9769 39.8794 35.1652ZM43.815 49.6779C43.815 50.0837 43.483 50.4158 43.0771 50.4158H32.7461C32.3402 50.4158 32.0081 50.0837 32.0081 49.6779V49.1859C32.0081 48.78 32.3402 48.448 32.7461 48.448H43.0771C43.483 48.448 43.815 48.78 43.815 49.1859V49.6779ZM43.815 45.7422C43.815 46.1481 43.483 46.4802 43.0771 46.4802H32.7461C32.3402 46.4802 32.0081 46.1481 32.0081 45.7422V45.2503C32.0081 44.8444 32.3402 44.5123 32.7461 44.5123H43.0771C43.483 44.5123 43.815 44.8444 43.815 45.2503V45.7422ZM43.815 41.3146V41.8066C43.815 42.2125 43.483 42.5445 43.0771 42.5445H32.7461C32.3402 42.5445 32.0081 42.2125 32.0081 41.8066V41.3146C32.0081 40.9088 32.3402 40.5767 32.7461 40.5767H43.0771C43.483 40.5767 43.815 40.9088 43.815 41.3146ZM49.7185 34.2982V34.6733H41.8472V26.802H42.2223C42.6159 26.802 42.991 26.9557 43.2677 27.2325L49.288 33.2589C49.5647 33.5356 49.7185 33.9107 49.7185 34.2982Z" fill="#AEA551"/>
</svg>
