<svg width="76" height="76" viewBox="0 0 76 76" fill="none" xmlns="http://www.w3.org/2000/svg">
<circle cx="37.5422" cy="37.5422" r="37.5422" fill="#C3FFB9"/>
<path d="M51.7427 44.176V23.181C51.7427 22.35 51.0741 21.6814 50.2431 21.6814H29.748C26.4362 21.6814 23.7494 24.3683 23.7494 27.68V47.6752C23.7494 50.9869 26.4362 53.6737 29.748 53.6737H50.2431C51.0741 53.6737 51.7427 53.0052 51.7427 52.1741V51.1743C51.7427 50.7057 51.524 50.2808 51.1866 50.0059C50.9241 49.0436 50.9241 46.3005 51.1866 45.3382C51.524 45.0696 51.7427 44.6447 51.7427 44.176ZM31.7475 30.0544C31.7475 29.8482 31.9162 29.6795 32.1224 29.6795H45.3692C45.5754 29.6795 45.7441 29.8482 45.7441 30.0544V31.3041C45.7441 31.5103 45.5754 31.679 45.3692 31.679H32.1224C31.9162 31.679 31.7475 31.5103 31.7475 31.3041V30.0544ZM31.7475 34.0534C31.7475 33.8472 31.9162 33.6785 32.1224 33.6785H45.3692C45.5754 33.6785 45.7441 33.8472 45.7441 34.0534V35.3031C45.7441 35.5093 45.5754 35.6781 45.3692 35.6781H32.1224C31.9162 35.6781 31.7475 35.5093 31.7475 35.3031V34.0534ZM47.5812 49.6747H29.748C28.642 49.6747 27.7484 48.7812 27.7484 47.6752C27.7484 46.5754 28.6482 45.6757 29.748 45.6757H47.5812C47.4625 46.7442 47.4625 48.6062 47.5812 49.6747Z" fill="#52A944"/>
</svg>
