<svg width="76" height="76" viewBox="0 0 76 76" fill="none" xmlns="http://www.w3.org/2000/svg">
<circle cx="37.5422" cy="37.7561" r="37.5422" fill="#B9EAFF"/>
<path d="M53.9534 36.212H52.2044C51.6827 35.0263 50.9238 33.9768 49.987 33.0994L51.1076 28.6231H49.2103C47.4672 28.6231 45.9257 29.4235 44.8823 30.6567C44.4317 30.5915 43.987 30.5203 43.5186 30.5203H35.9297C31.3408 30.5203 27.5167 33.7812 26.6333 38.1093H24.072C23.1945 38.1093 22.5008 37.3089 22.6787 36.4017C22.8091 35.7259 23.4435 35.2634 24.1313 35.2634H24.1906C24.3862 35.2634 24.5463 35.1033 24.5463 34.9077V33.7219C24.5463 33.5263 24.3862 33.3662 24.1906 33.3662C22.5008 33.3662 20.9949 34.5757 20.7815 36.2476C20.5206 38.2753 22.0977 40.0065 24.072 40.0065H26.4435C26.4435 43.1014 27.9495 45.8227 30.238 47.5539V52.3385C30.238 52.8602 30.6649 53.2871 31.1866 53.2871H34.9811C35.5028 53.2871 35.9297 52.8602 35.9297 52.3385V49.4927H43.5186V52.3385C43.5186 52.8602 43.9455 53.2871 44.4672 53.2871H48.2617C48.7834 53.2871 49.2103 52.8602 49.2103 52.3385V47.5539C49.9099 47.0262 50.5325 46.4037 51.0661 45.6982H53.9534C54.4751 45.6982 54.902 45.2713 54.902 44.7496V37.1606C54.902 36.6389 54.4751 36.212 53.9534 36.212ZM46.3645 40.0065C45.8427 40.0065 45.4159 39.5796 45.4159 39.0579C45.4159 38.5361 45.8427 38.1093 46.3645 38.1093C46.8862 38.1093 47.3131 38.5361 47.3131 39.0579C47.3131 39.5796 46.8862 40.0065 46.3645 40.0065ZM35.9297 28.6231H43.5186C43.8388 28.6231 44.153 28.6468 44.4613 28.6705C44.4613 28.6527 44.4672 28.6409 44.4672 28.6231C44.4672 25.4808 41.9178 22.9314 38.7755 22.9314C35.6333 22.9314 33.0838 25.4808 33.0838 28.6231C33.0838 28.7476 33.1135 28.8662 33.1194 28.9907C34.0206 28.7595 34.9574 28.6231 35.9297 28.6231Z" fill="#5698B5"/>
</svg>
