<svg width="66" height="60" viewBox="0 0 66 60" fill="none" xmlns="http://www.w3.org/2000/svg">
<rect x="0.5" y="0.5" width="65" height="59" rx="19.5" fill="white" stroke="#DADADA"/>
<path d="M40.2298 30.7964C40.2176 28.5023 41.2319 26.7707 43.2851 25.4955C42.1363 23.8139 40.4009 22.8888 38.1095 22.7075C35.9402 22.5324 33.5693 24.0015 32.7016 24.0015C31.7851 24.0015 29.6831 22.77 28.0332 22.77C24.6235 22.8262 21 25.5517 21 31.0965C21 32.7343 21.2933 34.4263 21.8799 36.1724C22.6621 38.4666 25.4851 44.0926 28.4304 43.9988C29.9702 43.9613 31.0579 42.8799 33.0622 42.8799C35.0053 42.8799 36.0135 43.9988 37.7306 43.9988C40.7003 43.9551 43.2545 38.8417 44 36.5412C40.0159 34.6221 40.2298 30.9152 40.2298 30.7964ZM36.7713 20.5321C38.4394 18.5067 38.2867 16.6626 38.2378 16C36.7651 16.0875 35.0603 17.0252 34.0887 18.1816C33.0194 19.4194 32.39 20.9509 32.5244 22.6762C34.1193 22.8012 35.5736 21.9636 36.7713 20.5321Z" fill="black"/>
</svg>
