<svg width="66" height="60" viewBox="0 0 66 60" fill="none" xmlns="http://www.w3.org/2000/svg">
<rect x="0.5" y="0.5" width="65" height="59" rx="19.5" fill="white" stroke="#DADADA"/>
<path d="M47 30.3109C47 29.1598 46.9047 28.3198 46.6985 27.4487H33.2858V32.6442H41.1587C41 33.9354 40.1429 35.8798 38.2381 37.1864L38.2114 37.3604L42.4522 40.58L42.7461 40.6087C45.4444 38.1665 47 34.5731 47 30.3109Z" fill="#4285F4"/>
<path d="M33.2848 44C37.1419 44 40.38 42.7555 42.7451 40.6089L38.2372 37.1865C37.0308 38.011 35.4118 38.5866 33.2848 38.5866C29.5071 38.5866 26.3008 36.1444 25.1578 32.7688L24.9903 32.7827L20.5806 36.1272L20.5229 36.2843C22.8721 40.8577 27.6975 44 33.2848 44Z" fill="#34A853"/>
<path d="M25.1587 32.769C24.8571 31.8979 24.6825 30.9645 24.6825 30.0001C24.6825 29.0356 24.8571 28.1023 25.1428 27.2312L25.1348 27.0456L20.6699 23.6475L20.5238 23.7156C19.5556 25.6134 19 27.7445 19 30.0001C19 32.2556 19.5556 34.3867 20.5238 36.2845L25.1587 32.769Z" fill="#FBBC05"/>
<path d="M33.2849 21.4133C35.9674 21.4133 37.7769 22.5488 38.8087 23.4978L42.8404 19.64C40.3643 17.3844 37.142 16 33.2849 16C27.6976 16 22.8721 19.1422 20.5229 23.7155L25.142 27.2311C26.3008 23.8555 29.5072 21.4133 33.2849 21.4133Z" fill="#EB4335"/>
</svg>
