<svg width="66" height="60" viewBox="0 0 66 60" fill="none" xmlns="http://www.w3.org/2000/svg">
<rect x="0.5" y="0.5" width="65" height="59" rx="19.5" fill="white" stroke="#DADADA"/>
<g clip-path="url(#clip0_104_2013)">
<path fill-rule="evenodd" clip-rule="evenodd" d="M40 36.9869H37.0994V32.4474C37.0994 31.365 37.0801 29.9729 35.5917 29.9729C34.0824 29.9729 33.8523 31.1524 33.8523 32.3704V36.9869H30.9542V27.6524H33.735V28.929H33.7752C34.162 28.1949 35.1088 27.4205 36.5201 27.4205C39.4575 27.4205 40 29.3534 40 31.8673V36.9869ZM27.6835 26.3775C26.7516 26.3775 26 25.6233 26 24.6949C26 23.7665 26.7516 23.0122 27.6835 23.0122C28.611 23.0122 29.3644 23.7665 29.3644 24.6949C29.3644 25.6233 28.611 26.3775 27.6835 26.3775ZM29.1342 36.9869H26.2301V27.6524H29.1342V36.9869ZM33 16C25.2676 16 19 22.2676 19 30C19 37.7315 25.2676 44 33 44C40.7324 44 47 37.7315 47 30C47 22.2676 40.7324 16 33 16Z" fill="#2E78B6"/>
</g>
<defs>
<clipPath id="clip0_104_2013">
<rect width="28" height="28" fill="white" transform="translate(19 16)"/>
</clipPath>
</defs>
</svg>
