<svg width="76" height="76" viewBox="0 0 76 76" fill="none" xmlns="http://www.w3.org/2000/svg">
<circle cx="37.5422" cy="37.7561" r="37.5422" fill="#FFB9D6"/>
<path d="M53.7115 23.3833H28.5592C28.0827 23.3833 27.6257 23.5726 27.2888 23.9095C26.9518 24.2464 26.7626 24.7034 26.7626 25.1799V30.5697H35.7455V26.9765H46.5251V44.9424H53.7115C54.188 44.9424 54.645 44.7532 54.9819 44.4162C55.3188 44.0793 55.5081 43.6223 55.5081 43.1459V25.1799C55.5081 24.7034 55.3188 24.2464 54.9819 23.9095C54.645 23.5726 54.188 23.3833 53.7115 23.3833V23.3833ZM32.6015 29.1661C32.6015 29.3001 32.5483 29.4286 32.4535 29.5234C32.3587 29.6181 32.2302 29.6714 32.0962 29.6714H30.4119C30.2779 29.6714 30.1494 29.6181 30.0546 29.5234C29.9598 29.4286 29.9066 29.3001 29.9066 29.1661V27.4818C29.9066 27.3478 29.9598 27.2192 30.0546 27.1245C30.1494 27.0297 30.2779 26.9765 30.4119 26.9765H32.0962C32.2302 26.9765 32.3587 27.0297 32.4535 27.1245C32.5483 27.2192 32.6015 27.3478 32.6015 27.4818V29.1661ZM52.364 40.844C52.364 40.978 52.3108 41.1065 52.216 41.2013C52.1213 41.296 51.9928 41.3493 51.8588 41.3493H50.1744C50.0404 41.3493 49.9119 41.296 49.8171 41.2013C49.7224 41.1065 49.6692 40.978 49.6692 40.844V39.1597C49.6692 39.0256 49.7224 38.8971 49.8171 38.8024C49.9119 38.7076 50.0404 38.6544 50.1744 38.6544H51.8588C51.9928 38.6544 52.1213 38.7076 52.216 38.8024C52.3108 38.8971 52.364 39.0256 52.364 39.1597V40.844ZM52.364 35.005C52.364 35.139 52.3108 35.2676 52.216 35.3623C52.1213 35.4571 51.9928 35.5103 51.8588 35.5103H50.1744C50.0404 35.5103 49.9119 35.4571 49.8171 35.3623C49.7224 35.2676 49.6692 35.139 49.6692 35.005V33.3207C49.6692 33.1867 49.7224 33.0582 49.8171 32.9634C49.9119 32.8687 50.0404 32.8154 50.1744 32.8154H51.8588C51.9928 32.8154 52.1213 32.8687 52.216 32.9634C52.3108 33.0582 52.364 33.1867 52.364 33.3207V35.005ZM52.364 29.1661C52.364 29.3001 52.3108 29.4286 52.216 29.5234C52.1213 29.6181 51.9928 29.6714 51.8588 29.6714H50.1744C50.0404 29.6714 49.9119 29.6181 49.8171 29.5234C49.7224 29.4286 49.6692 29.3001 49.6692 29.1661V27.4818C49.6692 27.3478 49.7224 27.2192 49.8171 27.1245C49.9119 27.0297 50.0404 26.9765 50.1744 26.9765H51.8588C51.9928 26.9765 52.1213 27.0297 52.216 27.1245C52.3108 27.2192 52.364 27.3478 52.364 27.4818V29.1661ZM42.9319 32.3663H21.3728C20.8963 32.3663 20.4393 32.5556 20.1024 32.8925C19.7655 33.2294 19.5762 33.6864 19.5762 34.1629V50.3322C19.5762 50.8087 19.7655 51.2657 20.1024 51.6026C20.4393 51.9395 20.8963 52.1288 21.3728 52.1288H42.9319C43.4084 52.1288 43.8654 51.9395 44.2023 51.6026C44.5392 51.2657 44.7285 50.8087 44.7285 50.3322V34.1629C44.7285 33.6864 44.5392 33.2294 44.2023 32.8925C43.8654 32.5556 43.4084 32.3663 42.9319 32.3663ZM24.966 35.9595C25.3213 35.9595 25.6686 36.0648 25.9641 36.2623C26.2595 36.4597 26.4898 36.7403 26.6258 37.0685C26.7618 37.3968 26.7974 37.7581 26.728 38.1066C26.6587 38.4551 26.4876 38.7752 26.2363 39.0265C25.9851 39.2777 25.665 39.4488 25.3165 39.5181C24.968 39.5875 24.6067 39.5519 24.2784 39.4159C23.9501 39.2799 23.6696 39.0497 23.4721 38.7542C23.2747 38.4588 23.1694 38.1114 23.1694 37.7561C23.1694 37.2796 23.3586 36.8226 23.6956 36.4857C24.0325 36.1488 24.4895 35.9595 24.966 35.9595ZM41.1353 48.5356H23.1694V46.739L26.7626 43.1459L28.5592 44.9424L35.7455 37.7561L41.1353 43.1459V48.5356Z" fill="#BC45A2"/>
</svg>
