<svg width="76" height="76" viewBox="0 0 76 76" fill="none" xmlns="http://www.w3.org/2000/svg">
<circle cx="37.5422" cy="37.7561" r="37.5422" fill="#FFE3B9"/>
<path d="M47.6793 25.0437L32.0558 29.6575C31.7386 29.7571 31.4615 29.9553 31.2647 30.2232C31.068 30.4911 30.9617 30.8148 30.9615 31.1472V43.9114C30.4499 43.7872 29.9255 43.723 29.399 43.72C26.8112 43.72 24.7115 45.1194 24.7115 46.845C24.7115 48.5706 26.8112 49.97 29.399 49.97C31.9869 49.97 34.0865 48.5706 34.0865 46.845V35.4348L46.5865 31.7727V40.7869C46.075 40.6623 45.5506 40.5979 45.024 40.595C42.4362 40.595 40.3365 41.9944 40.3365 43.72C40.3365 45.4456 42.4362 46.845 45.024 46.845C47.6119 46.845 49.7115 45.4461 49.7115 43.72V26.5325C49.7113 26.2872 49.6533 26.0454 49.5423 25.8267C49.4313 25.6079 49.2703 25.4184 49.0724 25.2735C48.8746 25.1285 48.6453 25.0322 48.4033 24.9923C48.1613 24.9523 47.9133 24.97 47.6793 25.0437Z" fill="#E16347"/>
</svg>
